<svg xmlns="http://www.w3.org/2000/svg" viewBox="0 0 100 100" width="100" height="100">
  <defs>
    <linearGradient id="g" x1="0%" y1="0%" x2="100%" y2="100%">
      <stop offset="0%" style="stop-color:#E8D48B"/>
      <stop offset="50%" style="stop-color:#C9A84C"/>
      <stop offset="100%" style="stop-color:#A8872E"/>
    </linearGradient>
  </defs>
  <rect width="100" height="100" rx="20" fill="#0F0F1A"/>
  <!-- Crown -->
  <path d="M20 65 L20 40 Q32 34 38 42 Q44 28 50 34 Q56 26 62 34 Q68 28 80 40 L80 65 Z" fill="url(#g)" stroke="#A8872E" stroke-width="0.8"/>
  <circle cx="38" cy="44" r="3.5" fill="#CE1126"/>
  <circle cx="50" cy="38" r="3.5" fill="#006C35"/>
  <circle cx="62" cy="44" r="3.5" fill="#CE1126"/>
  <path d="M34 42 L38 28 L42 41" fill="url(#g)"/>
  <path d="M46 38 L50 24 L54 37" fill="url(#g)"/>
  <path d="M58 38 L62 24 L66 37" fill="url(#g)"/>
  <rect x="20" y="63" width="60" height="4" rx="1.5" fill="url(#g)"/>
  <!-- K G letter -->
  <text x="50" y="88" font-family="'Playfair Display', Georgia, serif" font-size="14" font-weight="700" fill="#E8D48B" text-anchor="middle" letter-spacing="1">KG</text>
</svg>
